<svg viewBox="0 0 220 150" xmlns="http://www.w3.org/2000/svg">
  <ellipse cx="110" cy="138" rx="80" ry="8" fill="#000000" opacity="0.15"/>

  <g>
    <rect x="55" y="78" width="26" height="52" rx="12" fill="#3b6ea5" stroke="#000" stroke-width="4"/>
    <circle cx="68" cy="62" r="20" fill="#e0aa74" stroke="#000" stroke-width="4"/>
    <path d="M49 56 Q68 34 87 56 Q84 42 68 40 Q52 42 49 56 Z" fill="#161616" stroke="#000" stroke-width="3"/>
    <path d="M78 62 Q84 62 84 66" fill="none" stroke="#000" stroke-width="3" stroke-linecap="round"/>
  </g>

  <g>
    <rect x="139" y="78" width="26" height="52" rx="12" fill="#c9577a" stroke="#000" stroke-width="4"/>
    <circle cx="152" cy="62" r="20" fill="#e0aa74" stroke="#000" stroke-width="4"/>
    <path d="M133 58 Q152 34 171 58 Q168 40 152 38 Q136 40 133 58 Z" fill="#7a3b1e" stroke="#000" stroke-width="3"/>
    <path d="M142 62 Q136 62 136 66" fill="none" stroke="#000" stroke-width="3" stroke-linecap="round"/>
  </g>

  <path d="M60 30 L63 36 L57 36 Z" fill="#ffd23f" stroke="#000" stroke-width="1.5"/>
  <path d="M172 34 L175 40 L169 40 Z" fill="#ffd23f" stroke="#000" stroke-width="1.5"/>
</svg>
