<svg viewBox="0 0 220 150" xmlns="http://www.w3.org/2000/svg">
  <ellipse cx="110" cy="138" rx="95" ry="8" fill="#000000" opacity="0.15"/>

  <g>
    <ellipse cx="150" cy="46" rx="34" ry="16" fill="#4a5a4a" stroke="#000" stroke-width="3.4"/>
    <rect x="180" y="40" width="26" height="7" rx="3" fill="#4a5a4a" stroke="#000" stroke-width="2.6"/>
    <rect x="204" y="34" width="6" height="18" fill="#3a4a3a" stroke="#000" stroke-width="2"/>
    <rect x="145" y="24" width="10" height="6" fill="#222"/>
    <rect x="128" y="66" width="44" height="3" fill="#222"/>
    <rect x="132" y="62" width="3" height="8" fill="#222"/>
    <rect x="164" y="62" width="3" height="8" fill="#222"/>
    <rect x="145" y="60" width="2.4" height="46" fill="#8b5a2b"/>
    <rect x="158" y="60" width="2.4" height="46" fill="#8b5a2b"/>
    <rect x="143" y="72" width="20" height="2.4" fill="#8b5a2b"/>
    <rect x="143" y="86" width="20" height="2.4" fill="#8b5a2b"/>
    <rect x="143" y="100" width="20" height="2.4" fill="#8b5a2b"/>
  </g>

  <g>
    <path d="M136 108 Q150 96 164 108 L160 138 Q150 146 140 138 Z" fill="#5c5c5c" stroke="#000" stroke-width="3.2"/>
    <path d="M150 100 L146 78" stroke="#5c5c5c" stroke-width="9" stroke-linecap="round"/>
    <circle cx="145" cy="74" r="5.5" fill="#e0aa74" stroke="#000" stroke-width="2.2"/>
    <path d="M140 112 Q118 118 112 132" fill="none" stroke="#5c5c5c" stroke-width="9" stroke-linecap="round"/>
    <ellipse cx="106" cy="136" rx="13" ry="15" fill="#c9924f" stroke="#000" stroke-width="2.8"/>
    <text x="106" y="140" font-family="sans-serif" font-size="10" font-weight="bold" text-anchor="middle" fill="#000">৳</text>
    <circle cx="150" cy="88" r="13" fill="#e0aa74" stroke="#000" stroke-width="3"/>
    <path d="M139 84 Q150 74 161 84 Q158 80 150 79 Q142 80 139 84 Z" fill="#888"/>
    <rect x="139" y="86" width="22" height="6" rx="3" fill="#111"/>
    <path d="M142 96 Q150 100 158 96" fill="none" stroke="#3a2a1a" stroke-width="3" stroke-linecap="round"/>
  </g>

  <path d="M100 70 L92 78 M108 80 L98 86 M96 92 L86 96"
        stroke="#000" stroke-width="2" stroke-linecap="round" opacity="0.5"/>
</svg>
